# xmcd
#
# Track frame offsets:
#	150
#	14056
#	34084
#	53198
#	68076
#	83499
#	100887
#	118558
#	137903
#	156978
#	173920
#	189898
#	207675
#	226803
#	241400
#	260542
#	276520
#	305922
#
# Disc length: 4094 seconds
#
# Revision: 1
# Processed by: cddbd v1.5.1PL0 Copyright (c) Steve Scherf et al.
# Submitted via: audiograbber 1.83.01
#
DISCID=060ffc12
DTITLE=Various Artist - CB5042-02
DYEAR=2004
DGENRE=Karaoke
TTITLE0=LeAnn Rimes - Nothin Bout Love Makes Sense
TTITLE1=Sugarland - Baby Girl
TTITLE2=Patty Loveless - I Wanna Believe
TTITLE3=The Jenkins - Getaway Car
TTITLE4=Terri Clark - One Of The Guys
TTITLE5=Reba McEntire - He Gets That From Me
TTITLE6=Chely Wright - Back Of The Bottom Drawer
TTITLE7=Jessi Alexander - Honeysuckle Sweet
TTITLE8=Sheryl Crow - Light In Your Eyes
TTITLE9=Christy Sutherland - Freedom
TTITLE10=Carolyn Dawn Johnson - Die Of A Broken Heart
TTITLE11=Mary Chapin Carpenter - What Would You Say To Me
TTITLE12=Ryan Tyler - The Last Thing She Said
TTITLE13=Catherine Britt - The Upside Of Being Down
TTITLE14=Kellie Coffey - Dance With My Father
TTITLE15=Lisa Brokop - Wildflower
TTITLE16=Katrina Elam - I Won't Say Goodbye
TTITLE17=Data - Data
EXTD=
EXTT0=
EXTT1=
EXTT2=
EXTT3=
EXTT4=
EXTT5=
EXTT6=
EXTT7=
EXTT8=
EXTT9=
EXTT10=
EXTT11=
EXTT12=
EXTT13=
EXTT14=
EXTT15=
EXTT16=
EXTT17=
PLAYORDER=
